<svg xmlns="http://www.w3.org/2000/svg" height="48" viewBox="0 -960 960 960" width="48"><path d="M780-286 632-434q8-12 11.5-31t3.5-35q0-70-48.5-118.5T480-667q-17 0-33 3.5T414-652L286-781q34-14 90.5-26.5T485-820q136 0 255.5 75.5T925-535q3 8 4.5 17t1.5 18q0 9-1.5 18.5T924-466q-27 56-64 100.5T780-286Zm2 200L653-211q-35 14-79.5 22.5T480-180q-141 0-259.5-75.5T36-467q-4-7-5.5-15.5T29-500q0-9 2-19t5-17q21-43 53.5-85t73.5-82l-97-98q-10-8-10-22.5T66-848q8-9 23-9t25 9l716 716q9 10 7.5 23.5T830-87q-11 11-25.5 11T782-86ZM480-333q12 0 24.5-3t20.5-6L320-545q-2 10-4.5 22t-2.5 23q0 71 49 119t118 48Zm82-172-72-72q27-18 59 7t13 65Z"/></svg>